# AST/ASF file generated using VICON BodyLanguage
# -----------------------------------------------
:version 1.10
:name VICON
:units
  mass 1.0
  length 0.45
  angle deg
:documentation
   .ast/.asf automatically generated from VICON data using
   VICON BodyBuilder and BodyLanguage model FoxedUp or BRILLIANT.MOD
:root
   order TX TY TZ RX RY RZ
   axis XYZ
   position 0 0 0  
   orientation 0 0 0 
:bonedata
  begin
     id 1 
     name lhipjoint
     direction 0.567725 -0.736092 0.368589 
     length 2.42353 
     axis 0 0 0  XYZ
  end
  begin
     id 2 
     name lfemur
     direction 0.34202 -0.939693 0  
     length 7.24894  
     axis 0 0 20  XYZ
    dof rx ry rz
    limits (-160.0 20.0)
           (-70.0 70.0)
           (-60.0 70.0)
  end
  begin
     id 3 
     name ltibia
     direction 0.34202 -0.939693 0   
     length 7.6997   
     axis 0 0 20   XYZ
    dof rx
    limits (-10.0 170.0)
  end
  begin
     id 4 
     name lfoot
     direction 0.100767 -0.276854 0.955614   
     length 2.37556   
     axis -90 7.62852e-016 20   XYZ
    dof rx rz
    limits (-45.0 90.0)
           (-70.0 20.0)
  end
  begin
     id 5 
     name ltoes
     direction 1.53592e-011 -4.21894e-011 1   
     length 1.18363   
     axis -90 7.62852e-016 20   XYZ
    dof rx
    limits (-90.0 20.0)
  end
  begin
     id 6 
     name rhipjoint
     direction -0.556459 -0.742938 0.372017   
     length 2.4012  
     axis 0 0 0  XYZ 
  end
  begin
     id 7 
     name rfemur
     direction -0.34202 -0.939693 0   
     length 7.5119   
     axis 0 0 -20   XYZ
    dof rx ry rz
    limits (-160.0 20.0)
           (-70.0 70.0)
           (-70.0 60.0)
  end
  begin
     id 8 
     name rtibia
     direction -0.34202 -0.939693 0   
     length 7.50155   
     axis 0 0 -20   XYZ
    dof rx
    limits (-10.0 170.0)
 end
 begin
     id 9 
     name rfoot
     direction -0.118427 -0.325376 0.938139   
     length 2.32487  
     axis -90 -7.62852e-016 -20   XYZ
    dof rx rz
    limits (-45.0 90.0)
           (-20.0 70.0)
  end
  begin
     id 10 
     name rtoes
     direction -1.53525e-011 -4.21868e-011 1   
     length 1.15233   
     axis -90 -7.62852e-016 -20   XYZ
    dof rx
    limits (-90.0 20.0)
  end
  begin
     id 11 
     name lowerback
     direction 0.0287568 0.999577 -0.00434502   
     length 2.15243   
     axis 0 0 0   XYZ
    dof rx ry rz
    limits (-20.0 45.0)
           (-30.0 30.0)
           (-30.0 30.0)
  end
  begin
     id 12 
     name upperback
     direction 0.0294009 0.99956 0.00404628   
     length 2.15427   
     axis 0 0 0   XYZ
    dof rx ry rz
    limits (-20.0 45.0)
           (-30.0 30.0)
           (-30.0 30.0)
  end
  begin
     id 13 
     name thorax
     direction 0.0151014 0.999868 0.0059419   
     length 2.14898   
     axis 0 0 0   XYZ
    dof rx ry rz
    limits (-20.0 45.0)
           (-30.0 30.0)
           (-30.0 30.0)
  end
  begin
     id 14 
     name lowerneck
     direction -0.0249197 0.989906 0.139515   
     length 1.6861   
     axis 0 0 0   XYZ
    dof rx ry rz
    limits (-20.0 45.0)
           (-30.0 30.0)
           (-30.0 30.0)
  end
  begin
     id 15 
     name upperneck
     direction 0.0438463 0.988795 -0.142693   
     length 1.71276   
     axis 0 0 0   XYZ
    dof rx ry rz
    limits (-20.0 45.0)
           (-30.0 30.0)
           (-30.0 30.0)
  end
  begin
     id 16
     name head
     direction 0.0148499 0.997845 -0.0639186  
     length 1.7209  
     axis 0 0 0   XYZ
    dof rx ry rz
    limits (-20.0 45.0)
           (-30.0 30.0)
           (-30.0 30.0)
  end
  begin
     id 17 
     name lclavicle
     direction 0.940298 0.323464 -0.105876  
     length 3.9048  
     axis 0 0 0   XYZ
    dof ry rz
    limits (-20.0 10.0)
           (0.0 20.0)
  end
  begin
     id 18 
     name lhumerus
     direction 1 -4.48954e-011 -4.9675e-028   
     length 4.6851   
     axis 180 -30 -90   XYZ
    dof rx ry rz
    limits (-60.0 90.0)
           (-90.0 90.0)
           (-90.0 90.0)
  end
  begin
     id 19
     name lradius
     direction 1 -4.48992e-011 -1.03359e-026   
     length 3.39626   
     axis 180 -30 -90   XYZ
    dof rx
    limits (-10.0 170.0)
  end
  begin
     id 20
     name lwrist
     direction 1 -4.48906e-011 -1.67336e-026   
     length 1.69813   
     axis 9.90442e-015 90 90   XYZ
    dof ry
    limits (-180.0 0.0)
 end
  begin
     id 21 
     name lhand
     direction 1 -4.49006e-011 -3.34673e-026   
     length 0.486078   
     axis 2.1355e-014 90 90   XYZ
    dof rx rz
    limits (-90.0 90.0)
           (-45.0 45.0)
  end
  begin
     id 22 
     name lfingers
     direction 1 -4.48992e-011 -6.69345e-026   
     length 0.391889   
     axis 4.27099e-014 90 90   XYZ
    dof rx
    limits (0.0 90.0)
  end
  begin
     id 23
     name lthumb
     direction 0.707107 -6.34926e-011 0.707107   
     length 0.562676   
     axis -90 45 2.85299e-015   XYZ
    dof rx rz
    limits (-45.0 45.0)
           (-45.0 45.0)
  end
  begin
     id 24 
     name rclavicle
     direction -0.882459 0.414895 -0.221648   
     length 3.44646  
     axis 0 0 0   XYZ 
    dof ry rz
    limits (-10.0 20.0)
           (-20.0 0.0)
  end
  begin
     id 25 
     name rhumerus
     direction -1 -4.48962e-011 -2.37984e-027  
     length 5.55576   
     axis 180 30 90   XYZ
    dof rx ry rz
    limits (-90.0 60.0)
           (-90.0 90.0)
           (-90.0 90.0)
  end
  begin
     id 26 
     name rradius
     direction -1 -4.48982e-011 -6.86791e-027   
     length 3.32774   
     axis 180 30 90   XYZ
    dof rx
    limits (-10.0 170.0)
  end
  begin
     id 27 
     name rwrist
     direction -1 -4.48961e-011 -1.67336e-026   
     length 1.66387   
     axis 9.90442e-015 -90 -90   XYZ
    dof ry
    limits (-180.0 0.0)
  end
  begin
     id 28
     name rhand
     direction -1 -4.4897e-011 -3.34673e-026   
     length 0.507628   
     axis 2.1355e-014 -90 -90   XYZ
    dof rx rz
    limits (-90.0 90.0)
           (-45.0 45.0)
  end
  begin
     id 29
     name rfingers
     direction -1 -4.48854e-011 -6.69345e-026   
     length 0.409263   
     axis 4.27099e-014 -90 -90   XYZ
    dof rx
    limits (0.0 90.0)
  end
  begin
     id 30
     name rthumb
     direction -0.707107 -6.34913e-011 0.707107   
     length 0.587622   
     axis -90 -45 -2.85299e-015   XYZ
    dof rx rz
    limits (-45.0 45.0)
           (-45.0 45.0)
  end
:hierarchy
  begin
    root lhipjoint rhipjoint lowerback
    lhipjoint lfemur
    lfemur ltibia
    ltibia lfoot
    lfoot ltoes
    rhipjoint rfemur
    rfemur rtibia
    rtibia rfoot
    rfoot rtoes
    lowerback upperback
    upperback thorax
    thorax lowerneck lclavicle rclavicle
    lowerneck upperneck
    upperneck head
    lclavicle lhumerus
    lhumerus lradius
    lradius lwrist
    lwrist lhand lthumb
    lhand lfingers
    rclavicle rhumerus
    rhumerus rradius
    rradius rwrist
    rwrist rhand rthumb
    rhand rfingers
  end

#!OML:ASF E:\motion texture\Top Level 1\Subject 1\Session 1\male.ASF
:FULLY-SPECIFIED
:DEGREES
127
root 36.9866 17.1024 6.59619 84.7462 -83.3463 -74.8293
lowerback -2.26074 2.32797 4.01931
upperback -1.1786 3.01424 -0.0999437
thorax 0.26833 1.48993 -2.27258
lowerneck -16.7093 -7.06199 -10.3851
upperneck 2.03698 -8.44638 13.1771
head 4.33816 -3.66464 5.02599
rclavicle -1.39149e-014 -5.56597e-015
rhumerus -31.4621 21.263 -95.3044
rradius 55.6867
rwrist 3.95419
rhand -20.6647 -32.2697
rfingers 7.12502
rthumb 5.69806 -62.1731
lclavicle -1.39149e-014 -5.56597e-015
lhumerus -35.0675 14.4892 83.8385
lradius 32.9535
lwrist -24.7318
lhand -13.3988 17.1437
lfingers 7.12502
lthumb 12.7087 46.737
rfemur -0.388529 1.40426 30.1075
rtibia 27.7478
rfoot -15.9847 -18.3114
rtoes -9.62065
lfemur -38.5139 -1.25733 -7.8417
ltibia 28.2205
lfoot -6.02097 -0.187267
ltoes -5.29532
128
root 36.8614 17.0969 6.62049 84.6933 -83.5304 -74.9416
lowerback -2.21573 2.31782 3.8045
upperback -1.13873 3.0076 -0.168487
thorax 0.276543 1.48844 -2.22421
lowerneck -16.7317 -7.15779 -10.463
upperneck 2.02899 -8.58558 13.4524
head 4.37552 -3.72059 5.11004
rclavicle -7.95139e-016 -7.15625e-015
rhumerus -32.132 23.3085 -95.8294
rradius 56.6599
rwrist 4.18976
rhand -20.2226 -31.5661
rfingers 7.12502
rthumb 6.1249 -61.4575
lclavicle -7.95139e-016 -7.15625e-015
lhumerus -34.9985 14.2954 83.9988
lradius 32.9567
lwrist -24.7013
lhand -13.4822 17.1093
lfingers 7.12502
lthumb 12.6283 46.7075
rfemur -0.696375 1.17267 29.7404
rtibia 29.16
rfoot -15.441 -18.2368
rtoes -9.80486
lfemur -38.2207 -1.28691 -8.24016
ltibia 28.765
lfoot -6.05044 -0.397585
ltoes -4.75036
129
root 36.7355 17.0925 6.64545 84.7637 -83.7241 -75.1915
lowerback -2.17065 2.30358 3.58566
upperback -1.09333 2.99526 -0.233773
thorax 0.289646 1.48418 -2.17024
lowerneck -16.7446 -7.24731 -10.5343
upperneck 2.01853 -8.7189 13.7293
head 4.41042 -3.77396 5.19436
rclavicle 1.49089e-015 1.51076e-014
rhumerus -32.8432 25.3661 -96.3027
rradius 57.7359
rwrist 4.50121
rhand -19.7747 -30.7909
rfingers 7.12502
rthumb 6.55728 -60.6694
lclavicle 1.49089e-015 1.51076e-014
lhumerus -34.9295 14.0966 84.1616
lradius 32.9506
lwrist -24.6791
lhand -13.5664 17.0736
lfingers 7.12502
lthumb 12.5472 46.6769
rfemur -1.04632 0.93254 29.3539
rtibia 30.6335
rfoot -14.84 -18.1524
rtoes -9.86466
lfemur -37.8797 -1.31336 -8.64592
ltibia 29.281
lfoot -6.10047 -0.58104
ltoes -4.21291
130
root 36.609 17.0894 6.67108 84.9731 -83.9264 -75.595
lowerback -2.12252 2.28487 3.36411
upperback -1.04395 2.97684 -0.295354
thorax 0.30445 1.47684 -2.11112
lowerneck -16.7522 -7.3301 -10.5999
upperneck 2.0118 -8.84569 14.0074
head 4.44527 -3.82417 5.27892
rclavicle 3.34952e-014 1.59028e-014
rhumerus -33.5918 27.4232 -96.715
rradius 58.914
rwrist 4.88519
rhand -19.3308 -29.9569
rfingers 7.12502
rthumb 6.98585 -59.8216
lclavicle 3.34952e-014 1.59028e-014
lhumerus -34.8634 13.8927 84.3255
lradius 32.9354
lwrist -24.6661
lhand -13.6527 17.0304
lfingers 7.12502
lthumb 12.4639 46.6388
rfemur -1.4382 0.686961 28.9497
rtibia 32.1631
rfoot -14.1862 -18.0607
rtoes -9.80422
lfemur -37.4879 -1.34013 -9.05631
ltibia 29.7602
lfoot -6.17042 -0.735197
ltoes -3.67593
131
root 36.482 17.0875 6.69741 85.3756 -84.1361 -76.2049
lowerback -2.07049 2.26155 3.14456
upperback -0.98855 2.95209 -0.354027
thorax 0.32287 1.46633 -2.05029
lowerneck -16.7722 -7.40698 -10.6558
upperneck 2.01511 -8.96679 14.2835
head 4.48448 -3.87097 5.36163
rclavicle -1.90833e-014 7.95139e-016
rhumerus -34.365 29.4659 -97.0534
rradius 60.1946
rwrist 5.34858
rhand -18.9359 -29.0552
rfingers 7.12502
rthumb 7.36704 -58.9069
lclavicle -1.90833e-014 7.95139e-016
lhumerus -34.7941 13.6887 84.4876
lradius 32.9102
lwrist -24.6625
lhand -13.735 16.9831
lfingers 7.12502
lthumb 12.3846 46.5963
rfemur -1.87087 0.439685 28.5294
rtibia 33.7389
rfoot -13.4803 -17.9615
rtoes -9.62339
lfemur -37.0431 -1.36493 -9.46872
ltibia 30.1942
lfoot -6.26007 -0.858916
ltoes -3.15426
132
root 36.3551 17.0869 6.72404 85.8382 -84.3518 -76.8823
lowerback -2.01862 2.22978 2.92099
upperback -0.932242 2.91587 -0.408786
thorax 0.341356 1.44994 -1.98345
lowerneck -16.7764 -7.47518 -10.7046
upperneck 2.01684 -9.07928 14.5589
head 4.51985 -3.91418 5.44428
rclavicle -1.49089e-015 5.56597e-015
rhumerus -35.1617 31.4767 -97.3074
rradius 61.5756
rwrist 5.88551
rhand -18.523 -28.12
rfingers 7.12502
rthumb 7.76558 -57.9574
lclavicle -1.49089e-015 5.56597e-015
lhumerus -34.7292 13.478 84.6487
lradius 32.8765
lwrist -24.6664
lhand -13.8043 16.9477
lfingers 7.12502
lthumb 12.3178 46.5648
rfemur -2.35337 0.183894 28.0958
rtibia 35.3571
rfoot -12.7282 -17.8633
rtoes -9.31963
lfemur -36.5607 -1.39475 -9.88635
ltibia 30.5875
lfoot -6.36785 -0.962043
ltoes -2.64516
133
root 36.2284 17.0875 6.75095 86.3979 -84.5733 -77.6644
lowerback -1.9583 2.18891 2.6949
upperback -0.876439 2.86758 -0.459801
thorax 0.353801 1.42726 -1.91199
lowerneck -16.7841 -7.53575 -10.7436
upperneck 2.02811 -9.18419 14.8296
head 4.55749 -3.95349 5.5246
rclavicle -9.0447e-015 -3.97569e-015
rhumerus -35.9672 33.4503 -97.4652
rradius 63.0499
rwrist 6.48716
rhand -18.1281 -27.1546
rfingers 7.12502
rthumb 8.14673 -56.9775
lclavicle -9.0447e-015 -3.97569e-015
lhumerus -34.6684 13.2642 84.8062
lradius 32.8347
lwrist -24.6775
lhand -13.8635 16.929
lfingers 7.12502
lthumb 12.2607 46.5496
rfemur -2.88281 -0.0781573 27.6495
rtibia 37.0072
rfoot -11.9341 -17.7648
rtoes -8.89341
lfemur -36.0377 -1.42917 -10.3077
ltibia 30.9328
lfoot -6.49426 -1.04248
ltoes -2.14727
